<svg xmlns="http://www.w3.org/2000/svg" viewBox="0 0 200 200">
  <!-- Fond circulaire avec gradient -->
  <defs>
    <linearGradient id="bgGradient" x1="0%" y1="0%" x2="100%" y2="100%">
      <stop offset="0%" style="stop-color:#4F46E5;stop-opacity:1" />
      <stop offset="100%" style="stop-color:#7C3AED;stop-opacity:1" />
    </linearGradient>

    <!-- Ombre pour l'effet 3D -->
    <filter id="shadow" x="-20%" y="-20%" width="140%" height="140%">
      <feGaussianBlur in="SourceAlpha" stdDeviation="3" />
      <feOffset dx="2" dy="2" result="offsetblur" />
      <feComponentTransfer>
        <feFuncA type="linear" slope="0.3" />
      </feComponentTransfer>
      <feMerge>
        <feMergeNode />
        <feMergeNode in="SourceGraphic" />
      </feMerge>
    </filter>
  </defs>

  <!-- Cercle principal -->
  <circle cx="100" cy="100" r="90" fill="url(#bgGradient)" />

  <!-- Symbole de transfert d'argent -->
  <g fill="white" filter="url(#shadow)">
    <!-- Symbole du dollar -->
    <path d="M95 65v-8h10v8h5c8.284 0 15 6.716 15 15 0 6.513-4.14 12.047-9.92 14.132L100 100l-15-5.868C79.22 92.047 75.08 86.513 75.08 80c0-8.284 6.716-15 15-15h4.92zm10 70v8h-10v-8h-5c-8.284 0-15-6.716-15-15 0-6.513 4.14-12.047 9.92-14.132L100 100l15 5.868c5.78 2.085 9.92 7.619 9.92 14.132 0 8.284-6.716 15-15 15h-4.92z" />

    <!-- Flèches circulaires -->
    <path d="M160 100c0 33.137-26.863 60-60 60S40 133.137 40 100s26.863-60 60-60" fill="none" stroke="white" stroke-width="8" stroke-linecap="round">
      <animateTransform
        attributeName="transform"
        attributeType="XML"
        type="rotate"
        from="0 100 100"
        to="360 100 100"
        dur="30s"
        repeatCount="indefinite"
      />
    </path>

    <!-- Points décoratifs -->
    <circle cx="160" cy="100" r="4">
      <animate
        attributeName="opacity"
        values="1;0.3;1"
        dur="2s"
        repeatCount="indefinite"
      />
    </circle>
    <circle cx="40" cy="100" r="4">
      <animate
        attributeName="opacity"
        values="0.3;1;0.3"
        dur="2s"
        repeatCount="indefinite"
      />
    </circle>
  </g>
</svg>
